<svg width="48" height="48" viewBox="0 0 48 48" fill="none" xmlns="http://www.w3.org/2000/svg">
<path fill-rule="evenodd" clip-rule="evenodd" d="M24.001 40C20.8365 40 17.743 39.0616 15.1119 37.3035C12.4807 35.5454 10.4299 33.0466 9.21891 30.1229C8.00791 27.1993 7.69106 23.9823 8.30842 20.8786C8.92579 17.7749 10.4496 14.9239 12.6873 12.6863C14.9249 10.4487 17.7758 8.9248 20.8795 8.30744C23.9832 7.69007 27.2003 8.00693 30.1239 9.21793C33.0475 10.4289 35.5464 12.4797 37.3045 15.1109C39.0626 17.7421 40.001 20.8355 40.001 24C40.001 28.2435 38.3153 32.3131 35.3147 35.3137C32.3141 38.3143 28.2444 40 24.001 40ZM22.5868 14.5858C22.9618 14.2107 23.4706 14 24.001 14C24.5314 14 25.0401 14.2107 25.4152 14.5858C25.7903 14.9609 26.001 15.4696 26.001 16V24C26.001 24.5304 25.7903 25.0391 25.4152 25.4142C25.0401 25.7893 24.5314 26 24.001 26C23.4706 26 22.9618 25.7893 22.5868 25.4142C22.2117 25.0391 22.001 24.5304 22.001 24V16C22.001 15.4696 22.2117 14.9609 22.5868 14.5858ZM25.661 30.88C25.7367 30.9915 25.7972 31.1126 25.841 31.24C25.9126 31.351 25.9665 31.4725 26.001 31.6C26.0108 31.7332 26.0108 31.8668 26.001 32C25.9978 32.2614 25.9435 32.5196 25.841 32.76C25.7512 33.0082 25.6079 33.2336 25.4212 33.4202C25.2346 33.6069 25.0092 33.7502 24.761 33.84C24.5216 33.9458 24.2627 34.0005 24.001 34.0005C23.7392 34.0005 23.4804 33.9458 23.241 33.84C22.9928 33.7502 22.7674 33.6069 22.5808 33.4202C22.3941 33.2336 22.2508 33.0082 22.161 32.76C22.0585 32.5196 22.0041 32.2614 22.001 32C21.9995 31.7368 22.0499 31.4759 22.1494 31.2322C22.249 30.9885 22.3956 30.7669 22.581 30.58C22.7754 30.4033 22.9986 30.2613 23.241 30.16C23.6052 30.0068 24.0066 29.965 24.3946 30.0397C24.7826 30.1145 25.1397 30.3025 25.421 30.58L25.661 30.88Z" fill="#A83B3B"/>
<path fill-rule="evenodd" clip-rule="evenodd" d="M24.001 4C20.0454 4 16.1786 5.17298 12.8896 7.37061C9.6006 9.56824 7.03715 12.6918 5.52339 16.3463C4.00964 20.0009 3.61358 24.0222 4.38528 27.9018C5.15698 31.7814 7.0618 35.3451 9.85885 38.1421C12.6559 40.9392 16.2196 42.844 20.0992 43.6157C23.9788 44.3874 28.0001 43.9913 31.6547 42.4776C35.3092 40.9638 38.4327 38.4004 40.6304 35.1114C42.828 31.8224 44.001 27.9556 44.001 24C44.001 21.3736 43.4837 18.7728 42.4786 16.3463C41.4735 13.9198 40.0003 11.715 38.1431 9.85786C36.2859 8.00069 34.0812 6.5275 31.6547 5.52241C29.2281 4.51732 26.6274 4 24.001 4ZM24.001 40C20.8365 40 17.743 39.0616 15.1119 37.3035C12.4807 35.5454 10.4299 33.0466 9.21891 30.1229C8.00791 27.1993 7.69106 23.9823 8.30842 20.8786C8.92579 17.7749 10.4496 14.9239 12.6873 12.6863C14.9249 10.4487 17.7758 8.9248 20.8795 8.30744C23.9832 7.69007 27.2003 8.00693 30.1239 9.21793C33.0475 10.4289 35.5464 12.4797 37.3045 15.1109C39.0626 17.7421 40.001 20.8355 40.001 24C40.001 28.2435 38.3153 32.3131 35.3147 35.3137C32.3141 38.3143 28.2444 40 24.001 40Z" fill="#A83B3B"/>
</svg>
