<svg width="16" height="16" viewBox="0 0 16 16" fill="none" xmlns="http://www.w3.org/2000/svg">
<path d="M6.66659 8.66659H1.99992C1.82311 8.66659 1.65354 8.73682 1.52851 8.86185C1.40349 8.98687 1.33325 9.15644 1.33325 9.33325V13.9999C1.33325 14.1767 1.40349 14.3463 1.52851 14.4713C1.65354 14.5963 1.82311 14.6666 1.99992 14.6666H6.66659C6.8434 14.6666 7.01297 14.5963 7.13799 14.4713C7.26301 14.3463 7.33325 14.1767 7.33325 13.9999V9.33325C7.33325 9.15644 7.26301 8.98687 7.13799 8.86185C7.01297 8.73682 6.8434 8.66659 6.66659 8.66659ZM5.99992 13.3333H2.66659V9.99992H5.99992V13.3333ZM13.9999 1.33325H9.33325C9.15644 1.33325 8.98687 1.40349 8.86185 1.52851C8.73682 1.65354 8.66659 1.82311 8.66659 1.99992V6.66659C8.66659 6.8434 8.73682 7.01297 8.86185 7.13799C8.98687 7.26301 9.15644 7.33325 9.33325 7.33325H13.9999C14.1767 7.33325 14.3463 7.26301 14.4713 7.13799C14.5963 7.01297 14.6666 6.8434 14.6666 6.66659V1.99992C14.6666 1.82311 14.5963 1.65354 14.4713 1.52851C14.3463 1.40349 14.1767 1.33325 13.9999 1.33325ZM13.3333 5.99992H9.99992V2.66659H13.3333V5.99992ZM13.9999 8.66659H9.33325C9.15644 8.66659 8.98687 8.73682 8.86185 8.86185C8.73682 8.98687 8.66659 9.15644 8.66659 9.33325V13.9999C8.66659 14.1767 8.73682 14.3463 8.86185 14.4713C8.98687 14.5963 9.15644 14.6666 9.33325 14.6666H13.9999C14.1767 14.6666 14.3463 14.5963 14.4713 14.4713C14.5963 14.3463 14.6666 14.1767 14.6666 13.9999V9.33325C14.6666 9.15644 14.5963 8.98687 14.4713 8.86185C14.3463 8.73682 14.1767 8.66659 13.9999 8.66659ZM13.3333 13.3333H9.99992V9.99992H13.3333V13.3333ZM6.66659 1.33325H1.99992C1.82311 1.33325 1.65354 1.40349 1.52851 1.52851C1.40349 1.65354 1.33325 1.82311 1.33325 1.99992V6.66659C1.33325 6.8434 1.40349 7.01297 1.52851 7.13799C1.65354 7.26301 1.82311 7.33325 1.99992 7.33325H6.66659C6.8434 7.33325 7.01297 7.26301 7.13799 7.13799C7.26301 7.01297 7.33325 6.8434 7.33325 6.66659V1.99992C7.33325 1.82311 7.26301 1.65354 7.13799 1.52851C7.01297 1.40349 6.8434 1.33325 6.66659 1.33325ZM5.99992 5.99992H2.66659V2.66659H5.99992V5.99992Z" fill="#6D6E73"/>
</svg>
