<svg width="16" height="16" viewBox="0 0 16 16" fill="none" xmlns="http://www.w3.org/2000/svg">
<path d="M4.66929 5.33603H14.0026C14.4026 5.33603 14.6693 5.06937 14.6693 4.66937C14.6693 4.26937 14.4026 4.0027 14.0026 4.0027H4.66929C4.26929 4.0027 4.00262 4.26937 4.00262 4.66937C4.00262 5.06937 4.26929 5.33603 4.66929 5.33603ZM14.0026 7.33603H4.66929C4.26929 7.33603 4.00262 7.6027 4.00262 8.0027C4.00262 8.4027 4.26929 8.66937 4.66929 8.66937H14.0026C14.4026 8.66937 14.6693 8.4027 14.6693 8.0027C14.6693 7.6027 14.4026 7.33603 14.0026 7.33603ZM14.0026 10.6694H4.66929C4.26929 10.6694 4.00262 10.936 4.00262 11.336C4.00262 11.736 4.26929 12.0027 4.66929 12.0027H14.0026C14.4026 12.0027 14.6693 11.736 14.6693 11.336C14.6693 10.936 14.4026 10.6694 14.0026 10.6694ZM2.46929 4.2027C2.40262 4.13603 2.33595 4.06937 2.26929 4.06937C2.00262 3.93603 1.73595 4.0027 1.53595 4.2027C1.46929 4.26937 1.40262 4.33603 1.40262 4.4027C1.33595 4.6027 1.33595 4.73603 1.40262 4.93603C1.46929 5.0027 1.46929 5.06937 1.53595 5.13603C1.60262 5.2027 1.66929 5.26937 1.73595 5.26937C1.80262 5.33603 1.93595 5.33603 2.00262 5.33603C2.20262 5.33603 2.33595 5.26937 2.46929 5.13603C2.53595 5.06937 2.60262 5.0027 2.60262 4.93603C2.66929 4.73603 2.66929 4.6027 2.60262 4.4027C2.60262 4.33603 2.53595 4.26937 2.46929 4.2027ZM2.46929 7.53603C2.26929 7.33603 2.00262 7.26937 1.73595 7.4027C1.66929 7.46937 1.60262 7.46937 1.53595 7.53603C1.46929 7.6027 1.40262 7.66937 1.40262 7.73603C1.33595 7.86937 1.33595 8.06937 1.40262 8.26937C1.46929 8.33603 1.46929 8.4027 1.53595 8.46937C1.60262 8.53603 1.66929 8.6027 1.73595 8.6027C1.80262 8.66937 1.93595 8.66937 2.00262 8.66937C2.06929 8.66937 2.20262 8.66937 2.26929 8.6027C2.33595 8.53603 2.40262 8.53603 2.46929 8.46937C2.53595 8.4027 2.60262 8.33603 2.60262 8.26937C2.66929 8.13603 2.66929 7.93603 2.60262 7.73603C2.60262 7.66937 2.53595 7.6027 2.46929 7.53603ZM2.46929 10.8694C2.40262 10.8027 2.33595 10.736 2.26929 10.736C2.13595 10.6694 1.93595 10.6694 1.73595 10.736C1.66929 10.736 1.60262 10.8027 1.53595 10.8694C1.46929 10.936 1.40262 11.0027 1.40262 11.0694C1.26929 11.336 1.33595 11.6027 1.53595 11.8027C1.60262 11.8694 1.66929 11.936 1.73595 11.936C1.80262 12.0027 1.93595 12.0027 2.00262 12.0027C2.06929 12.0027 2.20262 12.0027 2.26929 11.936C2.33595 11.8694 2.40262 11.8694 2.46929 11.8027C2.66929 11.6027 2.73595 11.336 2.60262 11.0694C2.60262 11.0027 2.53595 10.936 2.46929 10.8694Z" fill="#6D6E73"/>
</svg>
