<svg width="24" height="24" viewBox="0 0 24 24" fill="none" xmlns="http://www.w3.org/2000/svg">
<path d="M20.8362 3C21.0966 3 21.3463 3.10536 21.5304 3.29289C21.7146 3.48043 21.818 3.73478 21.818 4V20C21.818 20.2652 21.7146 20.5196 21.5304 20.7071C21.3463 20.8946 21.0966 21 20.8362 21H3.16346C2.90306 21 2.65334 20.8946 2.46921 20.7071C2.28508 20.5196 2.18164 20.2652 2.18164 20V4C2.18164 3.73478 2.28508 3.48043 2.46921 3.29289C2.65334 3.10536 2.90306 3 3.16346 3H20.8362ZM7.09073 5H4.14528V19H7.09073V5ZM19.8544 5H9.05437V19H19.8544V5Z" fill="#6D6E73"/>
<path d="M7.09073 5H4.14528V19H7.09073V5Z" fill="#6D6E73"/>
</svg>
