<svg width="18" height="18" viewBox="0 0 18 18" fill="none" xmlns="http://www.w3.org/2000/svg">
<path d="M9 1.5C7.51664 1.5 6.0666 1.93987 4.83323 2.76398C3.59986 3.58809 2.63856 4.75943 2.07091 6.12987C1.50325 7.50032 1.35472 9.00832 1.64411 10.4632C1.9335 11.918 2.64781 13.2544 3.6967 14.3033C4.7456 15.3522 6.08197 16.0665 7.53683 16.3559C8.99168 16.6453 10.4997 16.4968 11.8701 15.9291C13.2406 15.3614 14.4119 14.4001 15.236 13.1668C16.0601 11.9334 16.5 10.4834 16.5 9C16.5 8.01509 16.306 7.03982 15.9291 6.12987C15.5522 5.21993 14.9997 4.39314 14.3033 3.6967C13.6069 3.00026 12.7801 2.44781 11.8701 2.0709C10.9602 1.69399 9.98492 1.5 9 1.5ZM9 15C7.81332 15 6.65328 14.6481 5.66658 13.9888C4.67989 13.3295 3.91085 12.3925 3.45673 11.2961C3.0026 10.1997 2.88378 8.99334 3.11529 7.82946C3.3468 6.66557 3.91825 5.59647 4.75736 4.75736C5.59648 3.91824 6.66558 3.3468 7.82946 3.11529C8.99335 2.88378 10.1997 3.0026 11.2961 3.45672C12.3925 3.91085 13.3295 4.67988 13.9888 5.66658C14.6481 6.65327 15 7.81331 15 9C15 10.5913 14.3679 12.1174 13.2426 13.2426C12.1174 14.3679 10.5913 15 9 15Z" fill="#6D6E73"/>
<path d="M8.25004 11.5111C8.25087 11.3144 8.32898 11.1258 8.46754 10.9861C8.53726 10.9158 8.62021 10.86 8.71161 10.8219C8.803 10.7839 8.90103 10.7643 9.00004 10.7643C9.09905 10.7643 9.19708 10.7839 9.28847 10.8219C9.37987 10.86 9.46282 10.9158 9.53254 10.9861C9.6711 11.1258 9.74921 11.3144 9.75004 11.5111C9.74971 11.6839 9.68975 11.8512 9.58031 11.9848C9.47086 12.1185 9.31863 12.2103 9.14933 12.2447C8.98004 12.2791 8.80407 12.2539 8.65115 12.1736C8.49823 12.0932 8.37774 11.9625 8.31004 11.8036C8.27064 11.7111 8.25023 11.6116 8.25004 11.5111Z" fill="#6D6E73"/>
<path d="M7.87422 5.81219C8.21654 5.6147 8.60484 5.51086 9.00004 5.51111C9.59678 5.51111 10.1691 5.74816 10.591 6.17012C11.013 6.59208 11.25 7.16437 11.25 7.76111C11.25 8.35785 11.013 8.93014 10.591 9.3521C10.1691 9.77406 9.59678 10.0111 9.00004 10.0111C8.80113 10.0111 8.61036 9.93209 8.46971 9.79144C8.32906 9.65079 8.25004 9.46002 8.25004 9.26111C8.25004 9.0622 8.32906 8.87143 8.46971 8.73078C8.61036 8.59013 8.80113 8.51111 9.00004 8.51111C9.13156 8.51059 9.26064 8.47548 9.37431 8.40933C9.48799 8.34317 9.58227 8.24828 9.64769 8.13418C9.71311 8.02008 9.74738 7.89078 9.74705 7.75925C9.74672 7.62773 9.71182 7.4986 9.64583 7.38483C9.57984 7.27105 9.48509 7.17663 9.37109 7.11104C9.25709 7.04545 9.12784 7.01099 8.99631 7.01112C8.86479 7.01125 8.73561 7.04596 8.62174 7.11178C8.50786 7.1776 8.4133 7.27221 8.34754 7.38611C8.24376 7.54936 8.08092 7.6662 7.89303 7.71222C7.70515 7.75824 7.50674 7.72989 7.33927 7.63308C7.17179 7.53627 7.0482 7.3785 6.9943 7.19272C6.9404 7.00694 6.96037 6.80751 7.05004 6.63611C7.24764 6.29385 7.5319 6.00968 7.87422 5.81219Z" fill="#6D6E73"/>
</svg>
