<svg width="18" height="18" viewBox="0 0 18 18" fill="none" xmlns="http://www.w3.org/2000/svg">
<path d="M15.75 15.75H2.25C2.05109 15.75 1.86032 15.671 1.71967 15.5303C1.57902 15.3897 1.5 15.1989 1.5 15V9.36525C1.49999 9.25808 1.52294 9.15216 1.56732 9.05461C1.61169 8.95706 1.67646 8.87016 1.75725 8.79975L4.5 6.408V3C4.5 2.80109 4.57902 2.61032 4.71967 2.46967C4.86032 2.32902 5.05109 2.25 5.25 2.25H15.75C15.9489 2.25 16.1397 2.32902 16.2803 2.46967C16.421 2.61032 16.5 2.80109 16.5 3V15C16.5 15.1989 16.421 15.3897 16.2803 15.5303C16.1397 15.671 15.9489 15.75 15.75 15.75ZM6.75 14.25H9V9.7065L6 7.0905L3 9.7065V14.25H5.25V11.25H6.75V14.25ZM10.5 14.25H15V3.75H6V5.34525C6.1755 5.34525 6.35175 5.40675 6.49275 5.5305L10.2428 8.79975C10.3235 8.87016 10.3883 8.95706 10.4327 9.05461C10.4771 9.15216 10.5 9.25808 10.5 9.36525V14.25ZM12 8.25H13.5V9.75H12V8.25ZM12 11.25H13.5V12.75H12V11.25ZM12 5.25H13.5V6.75H12V5.25ZM9 5.25H10.5V6.75H9V5.25Z" fill="#6D6E73"/>
</svg>
