<svg width="24" height="24" viewBox="0 0 24 24" fill="none" xmlns="http://www.w3.org/2000/svg">
<path d="M10.0997 8H21.0997C21.6997 8 22.0997 7.6 22.0997 7C22.0997 6.4 21.6997 6 21.0997 6H10.0997C9.49966 6 9.09966 6.4 9.09966 7C9.09966 7.6 9.49966 8 10.0997 8ZM5.79966 15.3V8.7C5.79956 8.35864 5.79956 8.13112 5.79956 8.13112C5.79956 7.84673 5.79966 7.6832 5.79956 7.42014C5.79956 7 5.79956 6.95089 5.79966 6.50016C5.7996 5.8623 5.56529 5.13307 4.93864 5.01397C4.89056 5.00483 4.84401 5 4.79966 5C4.75425 5 4.70427 5.00506 4.65145 5.01462C4.01149 5.13045 3.79966 5.84981 3.79966 6.50016C3.79966 7.04338 3.79966 6.57438 3.79966 7C3.79966 7.42562 3.79966 8.21831 3.79966 8.8V15.4C3.39966 15.1 2.89966 15 2.49966 15.4C2.09966 15.8 1.99966 16.4 2.39966 16.8L4.09966 18.8C4.19966 18.9 4.49966 19 4.79966 19C5.09966 19 5.39966 18.9 5.59966 18.6L7.29966 16.6C7.69966 16.2 7.59966 15.5 7.19966 15.2C6.69966 14.9 6.09966 14.9 5.79966 15.3ZM21.0997 11H10.0997C9.49966 11 9.09966 11.4 9.09966 12C9.09966 12.6 9.49966 13 10.0997 13H21.0997C21.6997 13 22.0997 12.6 22.0997 12C22.0997 11.4 21.6997 11 21.0997 11ZM21.0997 16H10.0997C9.49966 16 9.09966 16.4 9.09966 17C9.09966 17.6 9.49966 18 10.0997 18H21.0997C21.6997 18 22.0997 17.6 22.0997 17C22.0997 16.4 21.6997 16 21.0997 16Z" fill="#6D6E73"/>
</svg>
