<svg width="24" height="24" viewBox="0 0 24 24" fill="none" xmlns="http://www.w3.org/2000/svg">
<path d="M10.0997 16H21.0997C21.6997 16 22.0997 16.4 22.0997 17C22.0997 17.6 21.6997 18 21.0997 18H10.0997C9.49966 18 9.09966 17.6 9.09966 17C9.09966 16.4 9.49966 16 10.0997 16ZM5.79966 8.7V15.3C5.79956 15.6414 5.79956 15.8689 5.79956 15.8689C5.79956 16.1533 5.79966 16.3168 5.79956 16.5799C5.79956 17 5.79956 17.0491 5.79966 17.4998C5.7996 18.1377 5.56529 18.8669 4.93864 18.986C4.89056 18.9952 4.84401 19 4.79966 19C4.75425 19 4.70427 18.9949 4.65145 18.9854C4.01149 18.8696 3.79966 18.1502 3.79966 17.4998C3.79966 16.9566 3.79966 17.4256 3.79966 17C3.79966 16.5744 3.79966 15.7817 3.79966 15.2V8.6C3.39966 8.9 2.89966 9 2.49966 8.6C2.09966 8.2 1.99966 7.6 2.39966 7.2L4.09966 5.2C4.19966 5.1 4.49966 5 4.79966 5C5.09966 5 5.39966 5.1 5.59966 5.4L7.29966 7.4C7.69966 7.8 7.59966 8.5 7.19966 8.8C6.69966 9.1 6.09966 9.1 5.79966 8.7ZM21.0997 13H10.0997C9.49966 13 9.09966 12.6 9.09966 12C9.09966 11.4 9.49966 11 10.0997 11H21.0997C21.6997 11 22.0997 11.4 22.0997 12C22.0997 12.6 21.6997 13 21.0997 13ZM21.0997 8H10.0997C9.49966 8 9.09966 7.6 9.09966 7C9.09966 6.4 9.49966 6 10.0997 6H21.0997C21.6997 6 22.0997 6.4 22.0997 7C22.0997 7.6 21.6997 8 21.0997 8Z" fill="#6D6E73"/>
</svg>
