<svg width="25" height="24" viewBox="0 0 25 24" fill="none" xmlns="http://www.w3.org/2000/svg">
<path d="M10.5015 18C10.7667 18 11.021 17.8946 11.2086 17.7071C11.3961 17.5196 11.5015 17.2652 11.5015 17V11C11.5015 10.7348 11.3961 10.4804 11.2086 10.2929C11.021 10.1054 10.7667 10 10.5015 10C10.2362 10 9.98189 10.1054 9.79436 10.2929C9.60682 10.4804 9.50146 10.7348 9.50146 11V17C9.50146 17.2652 9.60682 17.5196 9.79436 17.7071C9.98189 17.8946 10.2362 18 10.5015 18ZM20.5015 6H16.5015V5C16.5015 4.20435 16.1854 3.44129 15.6228 2.87868C15.0602 2.31607 14.2971 2 13.5015 2H11.5015C10.7058 2 9.94275 2.31607 9.38014 2.87868C8.81753 3.44129 8.50146 4.20435 8.50146 5V6H4.50146C4.23625 6 3.98189 6.10536 3.79436 6.29289C3.60682 6.48043 3.50146 6.73478 3.50146 7C3.50146 7.26522 3.60682 7.51957 3.79436 7.70711C3.98189 7.89464 4.23625 8 4.50146 8H5.50146V19C5.50146 19.7956 5.81754 20.5587 6.38014 21.1213C6.94275 21.6839 7.70582 22 8.50146 22H16.5015C17.2971 22 18.0602 21.6839 18.6228 21.1213C19.1854 20.5587 19.5015 19.7956 19.5015 19V8H20.5015C20.7667 8 21.021 7.89464 21.2086 7.70711C21.3961 7.51957 21.5015 7.26522 21.5015 7C21.5015 6.73478 21.3961 6.48043 21.2086 6.29289C21.021 6.10536 20.7667 6 20.5015 6ZM10.5015 5C10.5015 4.73478 10.6068 4.48043 10.7944 4.29289C10.9819 4.10536 11.2362 4 11.5015 4H13.5015C13.7667 4 14.021 4.10536 14.2086 4.29289C14.3961 4.48043 14.5015 4.73478 14.5015 5V6H10.5015V5ZM17.5015 19C17.5015 19.2652 17.3961 19.5196 17.2086 19.7071C17.021 19.8946 16.7667 20 16.5015 20H8.50146C8.23625 20 7.98189 19.8946 7.79436 19.7071C7.60682 19.5196 7.50146 19.2652 7.50146 19V8H17.5015V19ZM14.5015 18C14.7667 18 15.021 17.8946 15.2086 17.7071C15.3961 17.5196 15.5015 17.2652 15.5015 17V11C15.5015 10.7348 15.3961 10.4804 15.2086 10.2929C15.021 10.1054 14.7667 10 14.5015 10C14.2362 10 13.9819 10.1054 13.7944 10.2929C13.6068 10.4804 13.5015 10.7348 13.5015 11V17C13.5015 17.2652 13.6068 17.5196 13.7944 17.7071C13.9819 17.8946 14.2362 18 14.5015 18Z" fill="#A83B3B"/>
</svg>
