<svg width="92" height="40" viewBox="0 0 92 40" fill="none" xmlns="http://www.w3.org/2000/svg">
<g clip-path="url(#clip0_345_23764)">
<path d="M16.8104 20.9732C16.8267 21.7409 16.6892 22.5043 16.4059 23.219C16.1226 23.9338 15.6991 24.5858 15.1599 25.1372C14.6537 25.6888 14.0352 26.1276 13.3453 26.4248C12.6554 26.722 11.9097 26.8707 11.1576 26.8612H5.82801C5.07615 26.8712 4.33073 26.7227 3.64117 26.4254C2.9516 26.1282 2.33364 25.6891 1.82823 25.1372C1.28814 24.5847 0.863938 23.9315 0.580184 23.2154C0.29643 22.4994 0.158759 21.7346 0.175135 20.9654V4.79782H4.53734L4.52169 11.0477V20.9577C4.52169 21.8649 4.95452 22.3172 5.8254 22.3172H11.155C12.0284 22.3172 12.4587 21.8675 12.4587 20.9628V17.0624C12.4587 16.1862 12.0258 15.7339 11.155 15.7054H9.85125C8.92562 15.6899 7.67666 15.0877 6.92312 14.3717C6.0001 13.4852 5.25438 12.4228 5.25438 11.1692H11.155C11.9069 11.1599 12.6522 11.3084 13.3421 11.6051C14.0319 11.9018 14.6506 12.3399 15.1573 12.8907C15.6959 13.4436 16.119 14.0965 16.4023 14.812C16.6855 15.5275 16.8233 16.2914 16.8078 17.0599L16.8104 20.9732Z" fill="#75787B"/>
<path d="M18.9033 26.8612V17.0599C18.9023 16.2853 19.0556 15.5183 19.3543 14.8026C19.6531 14.0869 20.0914 13.4368 20.6442 12.8895C21.1971 12.3422 21.8535 11.9085 22.5758 11.6133C23.2981 11.3181 24.0721 11.1672 24.8534 11.1692H31.0643C31.0643 12.4228 30.2821 13.4955 29.3095 14.3717C28.5273 15.0877 27.2001 15.6899 26.2249 15.7054H24.8508C23.9348 15.7347 23.4776 16.1871 23.4793 17.0624V26.8612H18.9033Z" fill="#75787B"/>
<path d="M54.5784 26.8612H49.9685L50.0024 20.6087V17.065C50.0024 16.1552 49.5461 15.7054 48.6283 15.7054H44.4981C43.5829 15.7054 43.124 16.1552 43.124 17.065V20.6139L43.1032 26.8173L38.5506 26.8483V17.0599C38.5499 16.2852 38.7035 15.5181 39.0026 14.8024C39.3016 14.0867 39.7402 13.4366 40.2932 12.8894C40.8463 12.3421 41.5029 11.9084 42.2253 11.6133C42.9478 11.3181 43.7219 11.1672 44.5034 11.1692H48.6283C49.4095 11.1675 50.1833 11.3187 50.9055 11.614C51.6277 11.9093 52.284 12.343 52.8367 12.8903C53.3895 13.4375 53.8278 14.0875 54.1267 14.803C54.4256 15.5185 54.5791 16.2854 54.5784 17.0599V26.8612Z" fill="#75787B"/>
<path d="M73.2895 26.8612H68.7083V20.6087V17.065C68.7083 16.1552 68.252 15.7054 67.3342 15.7054H63.2092C62.294 15.7054 61.8404 16.1552 61.8404 17.065V20.6139L61.8586 26.8664H57.2617V17.0598C57.26 16.2849 57.4129 15.5173 57.7115 14.8012C58.0102 14.085 58.4488 13.4345 59.002 12.8871C59.5553 12.3396 60.2123 11.906 60.9352 11.6111C61.6581 11.3163 62.4327 11.1661 63.2145 11.1692H67.3394C68.1207 11.1672 68.8947 11.3181 69.617 11.6133C70.3393 11.9085 70.9958 12.3422 71.5486 12.8895C72.1014 13.4368 72.5398 14.0869 72.8385 14.8026C73.1373 15.5182 73.2905 16.2853 73.2895 17.0598V26.8612Z" fill="#75787B"/>
<path d="M92 20.9732C92.0003 21.7474 91.8466 22.514 91.5476 23.2292C91.2486 23.9444 90.8101 24.5941 90.2574 25.1411C89.7047 25.688 89.0485 26.1215 88.3265 26.4167C87.6045 26.7119 86.8309 26.8629 86.0499 26.8612H81.925C81.1439 26.8633 80.3701 26.7124 79.6479 26.4174C78.9258 26.1223 78.2695 25.6889 77.7167 25.1418C77.1639 24.5948 76.7255 23.945 76.4266 23.2296C76.1277 22.5143 75.9741 21.7475 75.9748 20.9732V17.0599C75.9731 16.2852 76.1259 15.5178 76.4244 14.8018C76.7229 14.0858 77.1613 13.4354 77.7142 12.888C78.2672 12.3406 78.9239 11.9069 79.6465 11.6119C80.3691 11.3169 81.1435 11.1665 81.925 11.1692H86.0499C86.8312 11.1672 87.6052 11.3181 88.3275 11.6133C89.0498 11.9085 89.7063 12.3422 90.2591 12.8895C90.8119 13.4368 91.2503 14.087 91.549 14.8026C91.8478 15.5183 92.001 16.2854 92 17.0599V20.9732ZM87.7682 21.167V16.866C87.7682 15.8735 87.2649 15.372 86.2585 15.372H81.7164C80.7073 15.372 80.2067 15.8735 80.2067 16.866V21.167C80.2067 22.1596 80.7073 22.6584 81.7164 22.6584H86.2585C87.2649 22.6584 87.7682 22.1596 87.7682 21.167Z" fill="#75787B"/>
<path d="M37.1817 2.53888C37.1817 4.73074 36.7645 6.51939 35.646 8.02629C34.5274 9.5332 33.0385 10.0605 31.4611 10.0605V9.56422C31.4611 7.41113 31.8496 5.92748 32.9499 4.39472C33.6982 3.34532 34.9002 2.55438 35.818 1.76604C36.3651 1.31645 36.8012 0.74886 37.0931 0.106628L37.1817 2.53888Z" fill="#FF8200"/>
<path d="M35.8076 10.903C34.47 10.903 33.3149 11.5595 32.3684 12.8493C31.4143 14.1819 30.922 15.7855 30.9657 17.4191V26.8612H36.0684V20.6139V10.903H35.8076ZM31.5002 17.4191C31.4597 15.8978 31.9171 14.4043 32.8039 13.1621C33.5861 12.0971 34.4987 11.5905 35.5443 11.5052V20.6139C35.5443 20.6139 35.5443 25.8428 35.5443 26.3288H31.5002V17.4191Z" fill="#FF8200"/>
<path d="M4.72724 35.3004C4.72724 35.9052 4.28485 36.7444 3.40007 37.818C2.51615 38.8958 1.79911 39.4308 1.24634 39.4308C0.923976 39.4244 0.617348 39.2915 0.393715 39.0612C0.274879 38.9627 0.178379 38.8404 0.11053 38.7023C0.0426818 38.5642 0.00501425 38.4135 -5.11019e-06 38.26C-0.00153361 38.0872 0.0659579 37.9209 0.187729 37.7973C0.258054 37.722 0.346633 37.6657 0.445057 37.6338C0.543481 37.602 0.648484 37.5956 0.7501 37.6153C0.851715 37.635 0.946571 37.6801 1.02566 37.7463C1.10476 37.8125 1.16546 37.8977 1.20201 37.9937L1.26459 38.0739C1.68852 37.7737 2.06619 37.4142 2.38578 37.0064C2.74491 36.6264 3.05736 36.2056 3.31663 35.7527C2.68376 36.1521 2.08782 36.6062 1.53576 37.1097C1.41812 37.2032 1.27193 37.2542 1.12118 37.2545C1.03862 37.2547 0.956972 37.2373 0.881821 37.2034C0.806671 37.1695 0.739789 37.1199 0.685746 37.0581C0.625097 36.9971 0.577269 36.9248 0.545041 36.8454C0.512813 36.766 0.496827 36.681 0.498012 36.5954C0.503693 36.4565 0.54692 36.3217 0.623169 36.2051C0.975169 35.4994 1.28002 34.7715 1.53576 34.0261C1.81215 33.2731 2.08854 32.5132 2.36492 31.7464C2.40221 31.6242 2.47918 31.5177 2.58387 31.4434C2.68855 31.369 2.81508 31.3311 2.94377 31.3354C3.02814 31.3333 3.11192 31.3498 3.18904 31.3838C3.26617 31.4178 3.33469 31.4684 3.38963 31.5319C3.50596 31.6581 3.56936 31.8236 3.56694 31.9945C3.56694 32.1169 3.25579 33 2.63348 34.6439C2.98043 34.418 3.37981 34.2837 3.79378 34.2536C3.92255 34.2504 4.05035 34.2765 4.1674 34.3298C4.28444 34.3831 4.38764 34.4623 4.4691 34.5612C4.64257 34.7687 4.7351 35.031 4.72984 35.3004" fill="#FF8200"/>
<path d="M10.7194 35.9569C10.7194 36.4248 10.5108 36.6574 10.0988 36.6574C9.94376 36.6773 9.78701 36.6358 9.66256 36.542C9.53811 36.4481 9.45598 36.3094 9.43395 36.156C9.3792 35.8639 9.32183 35.5666 9.26708 35.2616C8.79774 35.4116 8.26583 35.9285 7.67134 36.8125C7.2698 37.469 6.86912 38.1195 6.46932 38.764C6.41417 38.8681 6.3301 38.9543 6.22705 39.0125C6.124 39.0706 6.0063 39.0983 5.88787 39.0922C5.71306 39.0896 5.54616 39.0195 5.42254 38.897C5.29891 38.7745 5.22828 38.609 5.22559 38.4357C5.22559 38.2634 5.62626 37.3105 6.4276 35.577C6.47555 35.4593 6.55876 35.359 6.66599 35.2897C6.77323 35.2204 6.89934 35.1853 7.02731 35.1893C7.09048 35.189 7.15346 35.196 7.21504 35.21C8.11547 34.3725 8.82034 33.9546 9.32965 33.9564C9.55604 33.9536 9.77835 34.0162 9.96954 34.1364C10.1607 34.2567 10.3125 34.4294 10.4065 34.6336C10.6248 35.0441 10.7325 35.5034 10.7194 35.9673" fill="#FF8200"/>
<path d="M13.2748 35.0342C13.2318 35.5385 13.1012 36.0317 12.8889 36.492C12.6768 36.9602 12.548 37.4613 12.5082 37.973C12.5082 38.0592 12.4909 38.1444 12.4573 38.2239C12.4238 38.3033 12.3746 38.3753 12.3126 38.4357C12.254 38.4981 12.1829 38.5477 12.1039 38.5815C12.0249 38.6154 11.9398 38.6326 11.8537 38.6322C11.3896 38.6322 11.1602 38.3737 11.1602 37.8283C11.1969 37.3289 11.3195 36.8393 11.5226 36.3808C11.7114 35.9425 11.8471 35.4835 11.9267 35.0135C11.9224 34.927 11.9367 34.8405 11.9687 34.7599C12.0007 34.6793 12.0497 34.6063 12.1123 34.5459C12.175 34.4855 12.2499 34.439 12.3321 34.4096C12.4143 34.3801 12.5019 34.3684 12.589 34.3751C12.6798 34.3736 12.77 34.3902 12.8542 34.424C12.9384 34.4577 13.0149 34.5079 13.0792 34.5715C13.1414 34.6317 13.1907 34.7037 13.2243 34.7832C13.2579 34.8627 13.2751 34.948 13.2748 35.0342ZM14.8705 33.3076C14.8682 33.4204 14.8411 33.5313 14.7912 33.6326C14.7412 33.734 14.6695 33.8233 14.5811 33.8943C14.4135 34.055 14.191 34.1473 13.9579 34.1528C13.6652 34.1428 13.3866 34.0259 13.1757 33.8245C13.0619 33.7405 12.9685 33.6324 12.9022 33.5081C12.8359 33.3838 12.7984 33.2464 12.7924 33.106C12.7957 32.9326 12.8665 32.7673 12.9899 32.6444C13.1133 32.5216 13.2798 32.4508 13.4547 32.4469C13.551 32.4444 13.6468 32.4612 13.7364 32.4963C13.826 32.5314 13.9075 32.584 13.9762 32.651H14.2056C14.2927 32.6511 14.3789 32.6685 14.4591 32.7022C14.5393 32.736 14.6118 32.7854 14.6723 32.8475C14.735 32.9073 14.7847 32.9792 14.8183 33.0588C14.8519 33.1384 14.8688 33.2239 14.8679 33.3102" fill="#FF8200"/>
<path d="M17.4175 32.465V32.589C17.3602 32.9991 17.0586 33.8926 16.5128 35.2694C15.9669 36.6462 15.6871 37.5336 15.6732 37.9317V38.0144C15.6732 38.4254 15.4307 38.6322 14.9483 38.6322C14.8621 38.6328 14.7769 38.6134 14.6995 38.5758C14.6221 38.5381 14.5547 38.4831 14.5024 38.415C14.3879 38.2796 14.3251 38.1085 14.3251 37.9317C14.3251 37.4251 14.5946 36.5273 15.1334 35.2384C15.7019 33.8598 16.013 32.9216 16.0669 32.4236C16.0674 32.3446 16.0842 32.2666 16.1163 32.1943C16.1484 32.122 16.1951 32.057 16.2534 32.0033C16.3118 31.9495 16.3807 31.9082 16.4557 31.8818C16.5308 31.8554 16.6106 31.8445 16.6901 31.8498C17.1855 31.8498 17.428 32.054 17.4175 32.465Z" fill="#FF8200"/>
<path d="M19.7772 32.465V32.589C19.7233 32.9991 19.4226 33.8926 18.8751 35.2694C18.3275 36.6462 18.0476 37.5336 18.0355 37.9317V38.0144C18.0355 38.4254 17.7956 38.6322 17.3106 38.6322C17.2244 38.6328 17.1392 38.6134 17.0618 38.5758C16.9844 38.5381 16.917 38.4831 16.8647 38.415C16.7502 38.2796 16.6874 38.1085 16.6874 37.9317C16.6874 37.4251 16.9569 36.5273 17.4957 35.2384C18.0642 33.8598 18.3753 32.9216 18.4292 32.4236C18.4297 32.3446 18.4465 32.2666 18.4786 32.1943C18.5107 32.122 18.5574 32.057 18.6157 32.0033C18.6741 31.9495 18.743 31.9082 18.818 31.8818C18.8931 31.8554 18.9729 31.8445 19.0524 31.8498C19.5478 31.8498 19.7929 32.054 19.7772 32.465Z" fill="#FF8200"/>
<path d="M21.2921 35.0342C21.2492 35.5385 21.1186 36.0317 20.9062 36.492C20.6942 36.9602 20.5654 37.4613 20.5256 37.973C20.5262 38.0593 20.5091 38.1447 20.4755 38.2242C20.4419 38.3037 20.3924 38.3757 20.33 38.4357C20.2711 38.4978 20.2 38.5473 20.1211 38.5811C20.0422 38.6149 19.9571 38.6323 19.8711 38.6322C19.407 38.6322 19.1775 38.3737 19.1775 37.8283C19.2142 37.3289 19.3368 36.8393 19.54 36.3808C19.7275 35.9421 19.8632 35.4832 19.9441 35.0135C19.9398 34.927 19.9541 34.8405 19.9861 34.7599C20.0181 34.6793 20.067 34.6063 20.1297 34.5459C20.1924 34.4855 20.2673 34.439 20.3495 34.4096C20.4317 34.3801 20.5192 34.3684 20.6064 34.3751C20.6968 34.3733 20.7867 34.3899 20.8705 34.4236C20.9544 34.4574 21.0304 34.5077 21.094 34.5715C21.157 34.6312 21.2071 34.7031 21.2411 34.7826C21.2752 34.8622 21.2926 34.9478 21.2921 35.0342ZM22.8879 33.3076C22.8853 33.4206 22.8578 33.5316 22.8073 33.633C22.7569 33.7343 22.6847 33.8235 22.5958 33.8943C22.4296 34.0555 22.2077 34.1479 21.9753 34.1528C21.6826 34.1428 21.404 34.0259 21.1931 33.8245C21.0793 33.7405 20.9859 33.6324 20.9196 33.5081C20.8533 33.3838 20.8158 33.2464 20.8098 33.106C20.8118 32.9322 20.8821 32.7661 21.0058 32.643C21.1295 32.5199 21.2968 32.4495 21.472 32.4469C21.5684 32.4441 21.6643 32.4608 21.7539 32.4959C21.8436 32.531 21.9251 32.5838 21.9935 32.651H22.223C22.3097 32.6508 22.3956 32.6681 22.4754 32.7019C22.5552 32.7357 22.6273 32.7852 22.6871 32.8475C22.7506 32.9068 22.801 32.9786 22.8351 33.0582C22.8692 33.1379 22.8863 33.2236 22.8853 33.3102" fill="#FF8200"/>
<path d="M25.7487 35.6106C25.7487 36.0474 25.5818 36.3007 25.2507 36.3705V36.4739C25.2465 36.597 25.2334 36.7197 25.2116 36.8409C25.1873 36.9637 25.1724 37.0881 25.1672 37.2131C25.15 37.5127 25.2426 37.8083 25.428 38.0454C25.5768 38.1902 25.6691 38.3825 25.6887 38.5882C25.6906 38.7636 25.6243 38.933 25.5036 39.0612C25.451 39.1255 25.3847 39.1775 25.3094 39.2132C25.2341 39.249 25.1517 39.2677 25.0682 39.268C24.6536 39.268 24.3198 38.932 24.0721 38.26C23.7317 38.6185 23.2645 38.8325 22.7684 38.857C21.9679 38.857 21.5664 38.4745 21.5664 37.7042C21.5664 37.0891 21.8776 36.3136 22.4999 35.378C23.1621 34.3441 23.7975 33.8271 24.4059 33.8271C24.6131 33.8288 24.8163 33.8847 24.9948 33.989C25.1734 34.0934 25.321 34.2426 25.4228 34.4216C25.6461 34.7724 25.7612 35.1803 25.7539 35.5951M24.5102 35.7993V35.5408C24.5162 35.4073 24.4715 35.2763 24.385 35.1738C24.1504 35.2953 23.8635 35.6364 23.4933 36.1896C23.2084 36.5867 22.9917 37.0277 22.8519 37.4949C23.1282 37.4147 23.4333 37.1149 23.7645 36.6031C24.0956 36.0914 24.3459 35.8277 24.5102 35.7889" fill="#FF8200"/>
<path d="M31.9699 35.8975C31.9699 36.4041 31.6222 37.438 30.9269 38.9992C30.8942 39.1411 30.8112 39.2666 30.693 39.353C30.5748 39.4393 30.4293 39.4807 30.2829 39.4696C30.1943 39.4704 30.1065 39.4537 30.0246 39.4204C29.9426 39.3871 29.8682 39.338 29.8057 39.2758C29.7402 39.217 29.688 39.1452 29.6525 39.065C29.617 38.9848 29.599 38.8981 29.5997 38.8105C29.7111 38.3886 29.8676 37.9796 30.0664 37.5905C30.2865 37.1319 30.4612 36.6532 30.5879 36.1612C29.9361 36.4765 28.8992 37.2166 27.4773 38.3815C27.3809 38.4629 27.2631 38.5154 27.1377 38.533C27.0123 38.5505 26.8845 38.5324 26.7691 38.4806C26.6538 38.4289 26.5556 38.3456 26.4862 38.2407C26.4167 38.1357 26.3789 38.0133 26.377 37.8878C26.377 37.7792 26.6377 37.2467 27.1357 36.2956C27.4155 35.7238 27.7334 35.1711 28.0874 34.6413C28.1479 34.5734 28.2218 34.5185 28.3044 34.4799C28.3871 34.4414 28.4769 34.42 28.5682 34.4171C28.6596 34.4142 28.7506 34.4298 28.8356 34.463C28.9206 34.4963 28.9978 34.5464 29.0626 34.6103C29.1273 34.6731 29.1783 34.7484 29.2124 34.8315C29.2465 34.9147 29.263 35.0039 29.2608 35.0937C29.2621 35.2273 29.218 35.3575 29.1356 35.4633C29.9361 34.9463 30.5462 34.6878 30.9608 34.6878C31.6231 34.6878 31.9568 35.0911 31.9568 35.9001" fill="#FF8200"/>
<path d="M32.83 34.4759C32.83 33.9796 33.3749 33.61 34.4674 33.3619C35.1809 33.2367 35.9007 33.1504 36.6237 33.1034C36.914 32.3848 37.2113 31.5232 37.5155 30.5186V30.4566C37.5103 30.3719 37.5242 30.2871 37.5563 30.2085C37.5883 30.1298 37.6376 30.0591 37.7006 30.0017C37.7652 29.9356 37.8426 29.8832 37.9282 29.8477C38.0138 29.8121 38.1058 29.7942 38.1986 29.7949C38.6419 29.7949 38.8635 30.0327 38.8635 30.5135C38.8635 30.8702 38.6149 31.6861 38.1178 32.9612C39.0825 32.8906 39.6761 32.8561 39.8986 32.8578C40.3706 32.8578 40.6027 33.0698 40.6027 33.4937C40.6131 33.5827 40.6042 33.6729 40.5765 33.7582C40.5489 33.8435 40.5032 33.922 40.4424 33.9883C40.3817 34.0547 40.3073 34.1074 40.2243 34.1429C40.1413 34.1784 40.0516 34.1959 39.9612 34.1941C39.4215 34.22 38.621 34.2691 37.5572 34.3363C37.1974 35.1738 36.8445 36.0095 36.4986 36.8435C35.9458 38.2014 35.6625 39.0104 35.6486 39.2706C35.6516 39.3585 35.6356 39.446 35.6018 39.5273C35.5679 39.6086 35.517 39.6818 35.4523 39.7419C35.3876 39.8021 35.3108 39.8479 35.2268 39.8763C35.1428 39.9047 35.0537 39.915 34.9654 39.9064C34.7906 39.9032 34.6238 39.833 34.4999 39.7107C34.376 39.5883 34.3045 39.4232 34.3005 39.2499C34.3005 38.8639 34.8811 37.2812 36.0423 34.5017C35.3572 34.583 34.6785 34.7108 34.0111 34.8843C33.9543 34.9578 33.8823 35.0183 33.7998 35.0618C33.7174 35.1053 33.6265 35.1307 33.5333 35.1364C33.4401 35.142 33.3467 35.1277 33.2596 35.0945C33.1724 35.0612 33.0935 35.0098 33.0281 34.9437C32.9648 34.8837 32.9145 34.8115 32.8804 34.7314C32.8464 34.6514 32.8292 34.5653 32.83 34.4785" fill="#FF8200"/>
<path d="M44.5629 35.0342C44.5196 35.5382 44.39 36.0312 44.1796 36.492C43.967 36.9602 43.8373 37.4612 43.7963 37.973C43.7968 38.059 43.78 38.1442 43.7468 38.2237C43.7137 38.3031 43.6649 38.3752 43.6033 38.4357C43.544 38.4979 43.4724 38.5474 43.393 38.5812C43.3137 38.615 43.2282 38.6323 43.1418 38.6322C42.6803 38.6322 42.4482 38.3737 42.4482 37.8283C42.4862 37.3291 42.6087 36.8397 42.8107 36.3808C43.0007 35.943 43.1365 35.4838 43.2148 35.0135C43.2104 34.9267 43.2248 34.84 43.257 34.7592C43.2891 34.6784 43.3383 34.6053 43.4013 34.5449C43.4642 34.4844 43.5395 34.438 43.622 34.4087C43.7045 34.3794 43.7924 34.368 43.8797 34.3751C43.9698 34.3732 44.0593 34.3897 44.1427 34.4235C44.2261 34.4573 44.3017 34.5077 44.3647 34.5715C44.4282 34.6309 44.4786 34.7026 44.5127 34.7823C44.5468 34.8619 44.5639 34.9477 44.5629 35.0342ZM46.1586 33.3076C46.1563 33.4204 46.1292 33.5313 46.0792 33.6326C46.0292 33.734 45.9576 33.8233 45.8692 33.8943C45.7019 34.0554 45.4792 34.1478 45.246 34.1528C44.9531 34.1438 44.6741 34.0267 44.4638 33.8245C44.3497 33.7406 44.2559 33.6326 44.1891 33.5084C44.1224 33.3841 44.0844 33.2466 44.0779 33.106C44.0775 33.0195 44.0948 32.9339 44.1289 32.8544C44.1629 32.7748 44.213 32.703 44.276 32.6433C44.3355 32.5805 44.4074 32.5307 44.4873 32.4969C44.5672 32.463 44.6533 32.446 44.7402 32.4469C44.8365 32.4444 44.9323 32.4612 45.0219 32.4963C45.1115 32.5314 45.193 32.584 45.2616 32.651H45.4885C45.6637 32.6537 45.831 32.7241 45.9547 32.8472C46.0784 32.9703 46.1487 33.1364 46.1508 33.3102" fill="#FF8200"/>
<path d="M50.2524 35.8975C50.2524 36.4041 49.9048 37.438 49.2094 38.9992C49.1773 39.1409 49.0948 39.2664 48.9771 39.3528C48.8593 39.4391 48.7141 39.4806 48.568 39.4696C48.4795 39.4704 48.3916 39.4537 48.3097 39.4204C48.2278 39.3871 48.1534 39.338 48.0909 39.2758C48.025 39.2172 47.9724 39.1454 47.9364 39.0652C47.9005 38.9851 47.882 38.8983 47.8823 38.8105C47.995 38.389 48.1514 37.9802 48.349 37.5905C48.5703 37.1324 48.745 36.6536 48.8705 36.1612C48.2204 36.4765 47.1835 37.2166 45.7598 38.3815C45.6418 38.4889 45.4872 38.548 45.327 38.5469C45.1517 38.5436 44.9845 38.4731 44.8605 38.3502C44.7366 38.2273 44.6654 38.0615 44.6621 37.8878C44.6621 37.7792 44.9228 37.2467 45.4183 36.2956C45.6995 35.7241 46.0183 35.1715 46.3726 34.6413C46.4331 34.5734 46.5069 34.5185 46.5896 34.4799C46.6723 34.4414 46.7621 34.42 46.8534 34.4171C46.9447 34.4142 47.0357 34.4298 47.1207 34.463C47.2057 34.4963 47.283 34.5464 47.3477 34.6103C47.4116 34.6736 47.4619 34.749 47.4955 34.8321C47.5291 34.9152 47.5454 35.0042 47.5433 35.0937C47.5442 35.2268 47.5012 35.3566 47.4207 35.4633C48.2221 34.9463 48.8305 34.6878 49.2459 34.6878C49.9082 34.6878 50.242 35.0911 50.242 35.9001" fill="#FF8200"/>
<path d="M56.2028 35.8975C56.2028 36.4041 55.8552 37.438 55.1599 38.9992C55.1277 39.1409 55.0452 39.2664 54.9275 39.3527C54.8097 39.4391 54.6645 39.4806 54.5184 39.4696C54.4298 39.4707 54.3419 39.4541 54.26 39.4208C54.178 39.3875 54.1036 39.3382 54.0413 39.2758C53.9754 39.2171 53.9228 39.1454 53.8868 39.0652C53.8509 38.985 53.8324 38.8982 53.8327 38.8105C53.9454 38.389 54.1018 37.9801 54.2994 37.5905C54.5195 37.1319 54.6941 36.6532 54.8209 36.1611C54.1708 36.4765 53.1339 37.2166 51.7102 38.3814C51.591 38.4886 51.4357 38.5476 51.2748 38.5469C51.1875 38.5479 51.101 38.531 51.0207 38.4972C50.9403 38.4633 50.8679 38.4134 50.8081 38.3504C50.7454 38.2906 50.6957 38.2187 50.6621 38.1391C50.6285 38.0595 50.6116 37.974 50.6125 37.8877C50.6125 37.7792 50.8733 37.2467 51.3687 36.2955C51.6488 35.7234 51.9677 35.1708 52.323 34.6413C52.3848 34.5686 52.4624 34.5106 52.55 34.4716C52.6376 34.4327 52.7329 34.4138 52.8288 34.4164C52.9162 34.4158 53.0028 34.4326 53.0834 34.4659C53.1641 34.4992 53.2371 34.5483 53.2982 34.6103C53.3616 34.6739 53.4115 34.7494 53.4451 34.8324C53.4787 34.9154 53.4952 35.0042 53.4937 35.0936C53.4951 35.2273 53.451 35.3575 53.3686 35.4633C54.1716 34.9463 54.78 34.6878 55.1937 34.6878C55.8578 34.6878 56.1898 35.0919 56.1898 35.9001" fill="#FF8200"/>
<path d="M61.0938 37.0477C61.1087 37.3251 61.0572 37.6019 60.9434 37.8558C60.8297 38.1096 60.657 38.3331 60.4394 38.5081C59.9668 38.864 59.3845 39.0466 58.7915 39.025C58.3069 39.0303 57.8267 38.9325 57.3835 38.7381C56.8446 38.4934 56.5752 38.1436 56.5752 37.6887C56.5752 37.2338 56.9967 36.5661 57.8398 35.6855C58.6811 34.7895 59.2547 34.3406 59.5607 34.3389C59.9727 34.3389 60.3429 34.7033 60.6793 35.4297C60.9286 35.9367 61.0697 36.4893 61.0938 37.0529M59.7458 37.0322C59.7229 36.6772 59.6176 36.3322 59.4381 36.0242C59.0705 36.3679 58.815 36.6083 58.6794 36.7453C58.4214 36.9834 58.1945 37.2526 58.0041 37.5466C58.2527 37.645 58.5186 37.6933 58.7863 37.6887C59.4277 37.6887 59.7484 37.4716 59.7484 37.0322" fill="#FF8200"/>
<path d="M66.5259 34.3751C66.5259 34.9524 65.9836 35.9664 64.8989 37.4173C63.8142 38.8682 63.0224 39.5946 62.5235 39.5963C62.4279 39.6096 62.3305 39.6008 62.239 39.5704C62.1474 39.5401 62.0642 39.4891 61.996 39.4214C61.9277 39.3537 61.8762 39.2713 61.8456 39.1805C61.815 39.0897 61.8061 38.9932 61.8195 38.8984C61.8195 38.6399 61.8378 38.2806 61.8717 37.787C61.9056 37.2933 61.9238 36.9237 61.9238 36.6781C61.9438 36.0625 61.8806 35.4471 61.7361 34.8481C61.7095 34.7832 61.6954 34.714 61.6944 34.6439C61.6933 34.5574 61.7104 34.4716 61.7445 34.392C61.7786 34.3123 61.829 34.2406 61.8925 34.1812C61.9529 34.1191 62.0255 34.0699 62.1057 34.0365C62.186 34.0032 62.2723 33.9865 62.3593 33.9874C63.0216 33.9874 63.3188 35.0962 63.251 37.3139C64.5078 35.8355 65.1501 34.8559 65.1779 34.3751C65.1886 34.2051 65.2642 34.0455 65.3894 33.9288C65.5147 33.8122 65.6801 33.7472 65.8519 33.7472C66.0237 33.7472 66.1891 33.8122 66.3144 33.9288C66.4396 34.0455 66.5152 34.2051 66.5259 34.3751Z" fill="#FF8200"/>
<path d="M71.1279 35.6106C71.1279 36.0474 70.9637 36.3007 70.6299 36.3705V36.4739C70.6245 36.597 70.6106 36.7197 70.5882 36.8409C70.5663 36.9639 70.5532 37.0883 70.5491 37.2131C70.5318 37.5127 70.6245 37.8083 70.8098 38.0454C70.9586 38.1902 71.0509 38.3825 71.0706 38.5882C71.0715 38.7639 71.0043 38.9333 70.8828 39.0612C70.8308 39.1255 70.7649 39.1774 70.69 39.2132C70.6151 39.2489 70.5331 39.2677 70.45 39.268C70.0354 39.268 69.7017 38.932 69.454 38.26C69.1136 38.6185 68.6463 38.8325 68.1503 38.857C67.3498 38.857 66.9482 38.4745 66.9482 37.7042C66.9482 37.0891 67.2594 36.3136 67.8817 35.378C68.544 34.3441 69.1793 33.8271 69.7877 33.8271C69.9949 33.8291 70.198 33.885 70.3765 33.9894C70.5549 34.0937 70.7026 34.2428 70.8046 34.4216C71.0268 34.7729 71.1418 35.1805 71.1357 35.5951M69.892 35.7993V35.5408C69.898 35.4073 69.8534 35.2763 69.7669 35.1738C69.5348 35.2953 69.2454 35.6364 68.8751 36.1896C68.5913 36.5873 68.3746 37.0282 68.2337 37.4949C68.5075 37.4147 68.8125 37.1149 69.1463 36.6031C69.48 36.0914 69.7251 35.8277 69.892 35.7889" fill="#FF8200"/>
<path d="M71.7482 34.2924C71.7482 33.7961 72.2949 33.4239 73.3883 33.1758C74.1021 33.0533 74.8219 32.967 75.5446 32.9173C75.8349 32.2005 76.1313 31.3389 76.4337 30.3325V30.2705C76.4285 30.186 76.4427 30.1013 76.4752 30.023C76.5078 29.9446 76.5577 29.8746 76.6215 29.8182C76.685 29.7514 76.7618 29.6986 76.8471 29.6629C76.9325 29.6273 77.0243 29.6098 77.1169 29.6114C77.5601 29.6114 77.7818 29.8492 77.7818 30.33C77.7818 30.6867 77.5332 31.5017 77.036 32.7751C78.0025 32.7079 78.597 32.6743 78.8195 32.6743C79.2888 32.6743 79.5235 32.8863 79.5235 33.3102C79.5335 33.3991 79.5243 33.4891 79.4965 33.5742C79.4687 33.6594 79.423 33.7377 79.3623 33.8039C79.3016 33.8702 79.2274 33.9229 79.1446 33.9585C79.0618 33.9942 78.9723 34.0119 78.8821 34.0106C78.3424 34.0365 77.5393 34.0856 76.4755 34.1528C76.1174 34.9868 75.7645 35.8225 75.4168 36.66C74.8641 38.0179 74.5816 38.826 74.5694 39.0845C74.5721 39.1725 74.5558 39.2601 74.5216 39.3414C74.4875 39.4226 74.4363 39.4958 74.3714 39.5559C74.3065 39.6161 74.2295 39.6618 74.1454 39.6902C74.0613 39.7185 73.9721 39.7288 73.8837 39.7203C73.7089 39.7177 73.542 39.6477 73.4183 39.5251C73.2947 39.4026 73.2241 39.2371 73.2214 39.0638C73.2214 38.6813 73.802 37.0994 74.9631 34.3182C74.2768 34.3967 73.597 34.5246 72.9294 34.7008C72.8694 34.7818 72.7908 34.8475 72.7001 34.8924C72.6094 34.9374 72.5093 34.9603 72.4079 34.9592C72.32 34.9593 72.2331 34.9411 72.1528 34.906C72.0724 34.8708 72.0003 34.8194 71.9412 34.755C71.8781 34.6953 71.8281 34.6235 71.794 34.5439C71.7599 34.4644 71.7426 34.3788 71.743 34.2924" fill="#FF8200"/>
<path d="M81.015 35.0342C80.9717 35.5382 80.8421 36.0312 80.6317 36.492C80.4191 36.9602 80.2894 37.4612 80.2484 37.973C80.2495 38.0591 80.233 38.1445 80.1998 38.224C80.1666 38.3035 80.1175 38.3755 80.0554 38.4357C79.9964 38.4976 79.9253 38.5469 79.8464 38.5807C79.7675 38.6145 79.6825 38.632 79.5965 38.6322C79.1324 38.6322 78.9004 38.3737 78.9004 37.8283C78.9383 37.3291 79.0608 36.8397 79.2628 36.3808C79.4521 35.9425 79.5887 35.4836 79.6696 35.0135C79.6652 34.927 79.6795 34.8405 79.7115 34.7599C79.7435 34.6793 79.7925 34.6063 79.8551 34.5459C79.9178 34.4855 79.9927 34.439 80.0749 34.4096C80.1571 34.3801 80.2447 34.3684 80.3318 34.3751C80.4223 34.3735 80.5121 34.3901 80.5959 34.4239C80.6797 34.4576 80.7557 34.5078 80.8194 34.5715C80.8826 34.631 80.9326 34.7028 80.9663 34.7825C80.9999 34.8621 81.0165 34.9478 81.015 35.0342ZM82.6133 33.3076C82.6107 33.4206 82.5832 33.5316 82.5328 33.633C82.4823 33.7343 82.4102 33.8235 82.3213 33.8943C82.1548 34.0551 81.9331 34.1474 81.7007 34.1528C81.408 34.1431 81.1293 34.0261 80.9185 33.8245C80.8048 33.7405 80.7113 33.6324 80.645 33.5081C80.5787 33.3838 80.5412 33.2464 80.5352 33.106C80.5343 33.0197 80.5512 32.9342 80.5848 32.8546C80.6184 32.7751 80.6681 32.7031 80.7308 32.6433C80.7906 32.5803 80.863 32.5304 80.9433 32.4966C81.0237 32.4627 81.1102 32.4458 81.1975 32.4469C81.2938 32.4441 81.3897 32.4608 81.4794 32.4959C81.569 32.531 81.6505 32.5838 81.719 32.651H81.9458C82.1211 32.6544 82.2883 32.7249 82.4123 32.8478C82.5362 32.9707 82.6074 33.1364 82.6107 33.3102" fill="#FF8200"/>
<path d="M85.7448 37.0477C85.7597 37.3251 85.7082 37.6019 85.5944 37.8558C85.4807 38.1096 85.3079 38.3331 85.0904 38.5081C84.6175 38.8634 84.0354 39.046 83.4425 39.025C82.957 39.0307 82.4759 38.9328 82.0319 38.7381C81.493 38.4934 81.2236 38.1436 81.2236 37.6887C81.2236 37.2338 81.6451 36.5661 82.4882 35.6855C83.3312 34.7895 83.9049 34.3406 84.2091 34.3389C84.6228 34.3389 84.9956 34.7025 85.3276 35.4297C85.5776 35.9366 85.7197 36.4892 85.7448 37.0529M84.3968 37.0322C84.3725 36.6771 84.2664 36.3322 84.0865 36.0242C83.7189 36.3679 83.4659 36.6083 83.3304 36.7453C83.0716 36.9834 82.8439 37.2526 82.6524 37.5466C82.9011 37.645 83.167 37.6933 83.4347 37.6887C84.0787 37.6887 84.3994 37.4716 84.3994 37.0322" fill="#FF8200"/>
<path d="M91.8592 35.8975C91.8592 36.4041 91.5116 37.438 90.8162 38.9992C90.7836 39.1411 90.7006 39.2666 90.5823 39.353C90.4641 39.4393 90.3186 39.4807 90.1722 39.4696C90.084 39.4705 89.9966 39.4538 89.9151 39.4205C89.8335 39.3872 89.7596 39.338 89.6977 39.2757C89.6318 39.2171 89.5792 39.1454 89.5432 39.0652C89.5073 38.985 89.4888 38.8982 89.4891 38.8105C89.6018 38.389 89.7582 37.9801 89.9558 37.5905C90.1788 37.1331 90.3536 36.6541 90.4773 36.1611C89.8306 36.4765 88.7946 37.2166 87.3692 38.3814C87.2502 38.4888 87.0947 38.5478 86.9338 38.5469C86.759 38.5429 86.5924 38.4721 86.469 38.3493C86.3456 38.2264 86.2748 38.0611 86.2715 37.8877C86.2715 37.7792 86.5323 37.2467 87.0277 36.2955C87.3067 35.7229 87.6256 35.1701 87.982 34.6413C88.0425 34.5734 88.1163 34.5185 88.199 34.4799C88.2817 34.4413 88.3715 34.4199 88.4628 34.417C88.5541 34.4141 88.6451 34.4298 88.7301 34.463C88.8151 34.4962 88.8924 34.5464 88.9572 34.6103C89.021 34.6735 89.0713 34.749 89.1049 34.8321C89.1385 34.9152 89.1548 35.0041 89.1527 35.0936C89.1541 35.2273 89.11 35.3575 89.0276 35.4632C89.8306 34.9463 90.439 34.6878 90.8527 34.6878C91.5168 34.6878 91.8488 35.0919 91.8488 35.9001" fill="#FF8200"/>
</g>
<defs>
<clipPath id="clip0_345_23764">
<rect width="92" height="39.8077" fill="white" transform="translate(0 0.0961609)"/>
</clipPath>
</defs>
</svg>
